<svg width="17" height="22" viewBox="0 0 17 22" fill="none" xmlns="http://www.w3.org/2000/svg">
<path d="M16 9.18182C16 15.5455 8.5 21 8.5 21C8.5 21 1 15.5455 1 9.18182C1 7.01187 1.79018 4.93079 3.1967 3.3964C4.60322 1.86201 6.51088 1 8.5 1C10.4891 1 12.3968 1.86201 13.8033 3.3964C15.2098 4.93079 16 7.01187 16 9.18182Z" stroke="black" stroke-width="2" stroke-linecap="round" stroke-linejoin="round"/>
<path d="M8.50003 11.9091C9.88074 11.9091 11 10.688 11 9.18182C11 7.67559 9.88074 6.45454 8.50003 6.45454C7.11932 6.45454 6.00003 7.67559 6.00003 9.18182C6.00003 10.688 7.11932 11.9091 8.50003 11.9091Z" stroke="black" stroke-width="2" stroke-linecap="round" stroke-linejoin="round"/>
</svg>
